<svg xmlns="http://www.w3.org/2000/svg" width="50" height="50" viewBox="0 0 50 50">
  <path id="Path_1" data-name="Path 1" d="M38.727,13.21c.84.817,1.611,1.515,2.319,2.272.442.473.3,1.036-.295,1.5a3.521,3.521,0,0,0-1.424,3.148A3.574,3.574,0,0,0,41.8,23.321a3.658,3.658,0,0,0,3.922-1.156c.062-.076.116-.157.18-.231a.965.965,0,0,1,1.529-.1q1.074,1.03,2.105,2.1a1.444,1.444,0,0,1-.016,2.135c-.655.679-1.334,1.335-2,2.006a1.006,1.006,0,0,0,.109,1.693,3.6,3.6,0,0,1,1.3,3.953,3.518,3.518,0,0,1-3.18,2.544,3.443,3.443,0,0,1-3.093-1.331c-.655-.8-1.164-.835-1.89-.107-.63.632-1.257,1.267-1.975,1.991-.481-.516-.922-1.009-1.385-1.48s-.932-.9-1.4-1.354A5.106,5.106,0,1,0,28.879,26.7l-1.792-1.776c.54-.522,1.1-1.058,1.654-1.6q.662-.649,1.312-1.31a1.484,1.484,0,0,0-.6-2.658,2.214,2.214,0,0,1-1.5-2.168,2.258,2.258,0,0,1,1.838-2.011,2.191,2.191,0,0,1,2.338,1.367,3.244,3.244,0,0,0,.324.7,1.446,1.446,0,0,0,2.29.075q1.857-1.834,3.691-3.692a2.786,2.786,0,0,0,.294-.424M15.215,40.821a1.038,1.038,0,0,1-.1,1.793A3.476,3.476,0,0,0,13.81,46.3a3.369,3.369,0,0,0,2.669,2.683,3.5,3.5,0,0,0,3.728-1.331,1.015,1.015,0,0,1,1.725-.118c.671.663,1.326,1.342,2.006,2a1.435,1.435,0,0,0,2.1.021c.73-.695,1.442-1.41,2.139-2.139a.957.957,0,0,0-.089-1.5c-.086-.075-.18-.139-.268-.212a3.616,3.616,0,0,1-1.12-3.969,3.574,3.574,0,0,1,3.33-2.421,3.526,3.526,0,0,1,3,1.445c.448.576,1.01.727,1.464.3.768-.719,1.468-1.51,2.221-2.3-1.309-1.3-2.647-2.632-3.978-3.968a1.475,1.475,0,0,1,.594-2.628,2.175,2.175,0,0,0,1.5-2.256,2.115,2.115,0,0,0-1.886-1.928,2.148,2.148,0,0,0-2.305,1.481,1.478,1.478,0,0,1-2.63.6c-.89-.881-1.772-1.771-2.658-2.655-.11-.11-.227-.212-.28-.262L23.309,28.9a5.125,5.125,0,0,1,.285,7.243,4.939,4.939,0,0,1-3.45,1.6,5.045,5.045,0,0,1-4.064-1.672l-2.818,2.809c.641.636,1.3,1.283,1.952,1.938M34.841,9.234c-.738-.734-.7-1.229.089-1.891a3.471,3.471,0,0,0,1.239-3.712A3.367,3.367,0,0,0,33.5,1.005,3.483,3.483,0,0,0,29.842,2.28c-.636.773-1.147.809-1.859.1-.622-.62-1.236-1.249-1.865-1.861a1.469,1.469,0,0,0-2.242,0c-.593.58-1.175,1.172-1.762,1.758-.836.836-.818,1.274.081,2.018a3.666,3.666,0,0,1,1.113,3.936,3.566,3.566,0,0,1-3.167,2.436,3.524,3.524,0,0,1-3.152-1.417c-.485-.614-1.047-.742-1.541-.278-.745.7-1.44,1.451-2.178,2.2.12.126.237.255.361.379,1.23,1.231,2.466,2.457,3.69,3.695a1.432,1.432,0,0,1,.042,2.193,2.87,2.87,0,0,1-.812.421,2.149,2.149,0,1,0,2.823,2.64,1.474,1.474,0,0,1,2.606-.6c.3.3.6.6.9.9.694.7,1.387,1.4,2.061,2.088L26.7,21.113c-2.4-2.5-2.007-5.3-.36-7.145a5.043,5.043,0,0,1,3.342-1.734,5.1,5.1,0,0,1,4.212,1.67l2.82-2.822c-.6-.6-1.24-1.22-1.873-1.849M9.251,15.141c-.757.757-1.245.724-1.924-.095a3.431,3.431,0,0,0-3.194-1.307,3.445,3.445,0,0,0-3.087,2.59A3.571,3.571,0,0,0,2.333,20.2a1.024,1.024,0,0,1,.1,1.759c-.629.636-1.268,1.262-1.9,1.9a1.477,1.477,0,0,0,0,2.276c.593.6,1.194,1.2,1.793,1.8.777.776,1.252.749,1.953-.109a3.61,3.61,0,0,1,6.3,3.165,3.722,3.722,0,0,1-1.416,2.1.917.917,0,0,0-.208,1.439c.71.756,1.474,1.46,2.3,2.265a3.59,3.59,0,0,1,.319-.432q1.822-1.835,3.656-3.658a1.462,1.462,0,0,1,2.576.577,2.181,2.181,0,0,0,2.269,1.552,2.158,2.158,0,0,0,.414-4.213,1.467,1.467,0,0,1-.6-2.574c.89-.9,1.793-1.8,2.689-2.694.11-.111.211-.231.273-.3L21.1,23.308a4.984,4.984,0,0,1-7.251.233c-1.67-1.575-2.685-4.605.062-7.472l-2.8-2.793c-.6.6-1.225,1.235-1.856,1.865" transform="translate(0)" fill="#dcae68"/>
</svg>
